<svg xmlns="http://www.w3.org/2000/svg" viewBox="0 0 1600 1000" role="img" aria-labelledby="t d">
  <title id="t">Liaison Reply chat shell preview</title>
  <desc id="d">Stylized chat workspace with personas, message composer, and reply cards.</desc>
  <defs>
    <linearGradient id="bg" x1="160" y1="60" x2="1440" y2="940">
      <stop offset="0" stop-color="#07111d"/>
      <stop offset="1" stop-color="#020617"/>
    </linearGradient>
    <linearGradient id="panel" x1="260" y1="120" x2="1340" y2="860">
      <stop offset="0" stop-color="#122033"/>
      <stop offset="1" stop-color="#0b1422"/>
    </linearGradient>
    <linearGradient id="accent" x1="940" y1="560" x2="1180" y2="780">
      <stop offset="0" stop-color="#2dd4f0"/>
      <stop offset="1" stop-color="#8b5cf6"/>
    </linearGradient>
  </defs>
  <rect width="1600" height="1000" rx="44" fill="url(#bg)"/>
  <circle cx="280" cy="180" r="200" fill="#2dd4f0" fill-opacity=".08"/>
  <circle cx="1330" cy="220" r="170" fill="#8b5cf6" fill-opacity=".08"/>

  <rect x="130" y="110" width="1340" height="780" rx="34" fill="url(#panel)" stroke="#28405b" stroke-width="2"/>
  <rect x="160" y="140" width="1280" height="50" rx="16" fill="#101826" stroke="#24364a"/>
  <circle cx="196" cy="165" r="7" fill="#2dd4f0"/><circle cx="218" cy="165" r="7" fill="#8b5cf6"/><circle cx="240" cy="165" r="7" fill="#334155"/>
  <text x="275" y="170" fill="#e2e8f0" font-family="Inter,Segoe UI,Arial,sans-serif" font-size="18" font-weight="700">Liaison Reply</text>
  <text x="1380" y="170" fill="#8fa0b5" font-family="Inter,Segoe UI,Arial,sans-serif" font-size="14" font-weight="600" text-anchor="end">Free plan · 8 of 15 left</text>

  <rect x="160" y="214" width="300" height="646" rx="28" fill="#0e1724" stroke="#24364a"/>
  <text x="188" y="252" fill="#8fa0b5" font-family="Inter,Segoe UI,Arial,sans-serif" font-size="12" font-weight="700" letter-spacing="2">PERSONAS</text>
  <rect x="186" y="272" width="248" height="56" rx="16" fill="#122033" stroke="#2dd4f0" stroke-opacity=".35"/>
  <text x="210" y="306" fill="#e2e8f0" font-family="Inter,Segoe UI,Arial,sans-serif" font-size="15" font-weight="700">The Diplomat</text>
  <rect x="186" y="338" width="248" height="56" rx="16" fill="#101826" stroke="#24364a"/><text x="210" y="372" fill="#cbd5e1" font-family="Inter,Segoe UI,Arial,sans-serif" font-size="15">The Charmer</text>
  <rect x="186" y="404" width="248" height="56" rx="16" fill="#101826" stroke="#24364a"/><text x="210" y="438" fill="#cbd5e1" font-family="Inter,Segoe UI,Arial,sans-serif" font-size="15">The Closer</text>
  <rect x="186" y="470" width="248" height="56" rx="16" fill="#101826" stroke="#24364a"/><text x="210" y="504" fill="#cbd5e1" font-family="Inter,Segoe UI,Arial,sans-serif" font-size="15">The Cool Head</text>
  <rect x="186" y="558" width="248" height="182" rx="20" fill="#101826" stroke="#24364a"/>
  <text x="210" y="596" fill="#8fa0b5" font-family="Inter,Segoe UI,Arial,sans-serif" font-size="12" font-weight="700" letter-spacing="1.8">THREADS</text>
  <text x="210" y="632" fill="#e2e8f0" font-family="Inter,Segoe UI,Arial,sans-serif" font-size="17" font-weight="700">Saved conversations</text>
  <text x="210" y="664" fill="#94a3b8" font-family="Inter,Segoe UI,Arial,sans-serif" font-size="14">Reply to Jordan</text>
  <text x="210" y="692" fill="#94a3b8" font-family="Inter,Segoe UI,Arial,sans-serif" font-size="14">Client follow-up</text>
  <text x="210" y="720" fill="#94a3b8" font-family="Inter,Segoe UI,Arial,sans-serif" font-size="14">Date night reply</text>

  <rect x="484" y="214" width="916" height="646" rx="28" fill="#0b1422" stroke="#24364a"/>
  <text x="516" y="254" fill="#e2e8f0" font-family="Inter,Segoe UI,Arial,sans-serif" font-size="28" font-weight="800">Reply with confidence</text>
  <rect x="516" y="282" width="206" height="30" rx="15" fill="#122033" stroke="#2dd4f0" stroke-opacity=".28"/>
  <text x="533" y="302" fill="#2dd4f0" font-family="Inter,Segoe UI,Arial,sans-serif" font-size="12" font-weight="700" letter-spacing="1.4">PASTE INCOMING MESSAGE</text>
  <rect x="516" y="328" width="820" height="120" rx="22" fill="#101826" stroke="#28405b"/>
  <text x="540" y="368" fill="#cbd5e1" font-family="Inter,Segoe UI,Arial,sans-serif" font-size="17">Hey, can you send the updated proposal and a quick note on next steps?</text>
  <text x="540" y="398" fill="#8fa0b5" font-family="Inter,Segoe UI,Arial,sans-serif" font-size="15">Keep it concise, confident, and easy to forward.</text>

  <text x="516" y="492" fill="#8fa0b5" font-family="Inter,Segoe UI,Arial,sans-serif" font-size="12" font-weight="700" letter-spacing="1.4">REPLIES</text>
  <rect x="516" y="514" width="250" height="126" rx="22" fill="#111b2b" stroke="#2dd4f0" stroke-opacity=".34"/>
  <rect x="784" y="514" width="250" height="126" rx="22" fill="#111b2b" stroke="#24364a"/>
  <rect x="1052" y="514" width="250" height="126" rx="22" fill="#111b2b" stroke="#24364a"/>
  <text x="540" y="552" fill="#2dd4f0" font-family="Inter,Segoe UI,Arial,sans-serif" font-size="15" font-weight="700">Natural</text>
  <text x="540" y="578" fill="#e2e8f0" font-family="Inter,Segoe UI,Arial,sans-serif" font-size="14">Absolutely - I’ll send the updated proposal now.</text>
  <text x="808" y="552" fill="#e2e8f0" font-family="Inter,Segoe UI,Arial,sans-serif" font-size="15" font-weight="700">Keep It Going</text>
  <text x="808" y="578" fill="#cbd5e1" font-family="Inter,Segoe UI,Arial,sans-serif" font-size="14">Happy to send that over, plus next-step ideas.</text>
  <text x="1076" y="552" fill="#e2e8f0" font-family="Inter,Segoe UI,Arial,sans-serif" font-size="15" font-weight="700">Quick</text>
  <text x="1076" y="578" fill="#cbd5e1" font-family="Inter,Segoe UI,Arial,sans-serif" font-size="14">Sending the update now.</text>

  <rect x="516" y="676" width="820" height="104" rx="22" fill="#101826" stroke="#24364a"/>
  <rect x="540" y="700" width="620" height="56" rx="16" fill="#0b1422" stroke="#2dd4f0" stroke-opacity=".2"/>
  <text x="560" y="734" fill="#8fa0b5" font-family="Inter,Segoe UI,Arial,sans-serif" font-size="15">Paste your message here...</text>
  <rect x="1178" y="700" width="132" height="56" rx="16" fill="url(#accent)"/>
  <text x="1244" y="735" fill="#fff" font-family="Inter,Segoe UI,Arial,sans-serif" font-size="16" font-weight="800" text-anchor="middle">Generate</text>
</svg>
