<svg xmlns="http://www.w3.org/2000/svg" viewBox="0 0 1400 960" role="img" aria-labelledby="t d">
  <title id="t">Liaison Reply marketplace preview</title>
  <desc id="d">Marketplace and Pro paywall preview showing premium personas and subscription benefits.</desc>
  <defs>
    <linearGradient id="bg" x1="140" y1="80" x2="1260" y2="880">
      <stop offset="0" stop-color="#07111d"/>
      <stop offset="1" stop-color="#020617"/>
    </linearGradient>
    <linearGradient id="card" x1="300" y1="130" x2="1100" y2="830">
      <stop offset="0" stop-color="#122033"/>
      <stop offset="1" stop-color="#0b1422"/>
    </linearGradient>
    <linearGradient id="pro" x1="880" y1="180" x2="1180" y2="740">
      <stop offset="0" stop-color="#8b5cf6"/>
      <stop offset="1" stop-color="#2dd4f0"/>
    </linearGradient>
  </defs>
  <rect width="1400" height="960" rx="42" fill="url(#bg)"/>
  <circle cx="320" cy="190" r="180" fill="#2dd4f0" fill-opacity=".08"/>
  <circle cx="1120" cy="170" r="140" fill="#8b5cf6" fill-opacity=".10"/>

  <rect x="120" y="104" width="1160" height="748" rx="34" fill="url(#card)" stroke="#28405b" stroke-width="2"/>
  <text x="160" y="172" fill="#e2e8f0" font-family="Inter,Segoe UI,Arial,sans-serif" font-size="36" font-weight="800">Marketplace</text>
  <text x="160" y="206" fill="#8fa0b5" font-family="Inter,Segoe UI,Arial,sans-serif" font-size="16">Preview premium personas, then unlock them through one consistent Pro paywall.</text>

  <rect x="160" y="246" width="350" height="86" rx="24" fill="#0f1a2a" stroke="#24364a"/>
  <text x="186" y="280" fill="#8fa0b5" font-family="Inter,Segoe UI,Arial,sans-serif" font-size="12" font-weight="700" letter-spacing="1.4">PRO PLAN</text>
  <text x="186" y="314" fill="#f8fafc" font-family="Inter,Segoe UI,Arial,sans-serif" font-size="22" font-weight="800">Unlock every premium persona</text>

  <g font-family="Inter,Segoe UI,Arial,sans-serif">
    <rect x="160" y="358" width="228" height="214" rx="24" fill="#101826" stroke="#24364a"/>
    <text x="186" y="394" fill="#2dd4f0" font-size="18" font-weight="800">The Diplomat</text>
    <text x="186" y="424" fill="#cbd5e1" font-size="14">For workplace politics and delicate professional situations.</text>
    <rect x="186" y="468" width="176" height="38" rx="12" fill="#122033"/><text x="274" y="493" fill="#cbd5e1" font-size="14" text-anchor="middle">See Pro plans</text>

    <rect x="406" y="358" width="228" height="214" rx="24" fill="#101826" stroke="#24364a"/>
    <text x="432" y="394" fill="#f9a8d4" font-size="18" font-weight="800">The Charmer</text>
    <text x="432" y="424" fill="#cbd5e1" font-size="14">For dating and casual banter that feels warm and confident.</text>
    <rect x="432" y="468" width="176" height="38" rx="12" fill="#122033"/><text x="520" y="493" fill="#cbd5e1" font-size="14" text-anchor="middle">See Pro plans</text>

    <rect x="652" y="358" width="228" height="214" rx="24" fill="#101826" stroke="#24364a"/>
    <text x="678" y="394" fill="#a7f3d0" font-size="18" font-weight="800">The Closer</text>
    <text x="678" y="424" fill="#cbd5e1" font-size="14">For sealing the deal and landing clear next steps.</text>
    <rect x="678" y="468" width="176" height="38" rx="12" fill="#122033"/><text x="766" y="493" fill="#cbd5e1" font-size="14" text-anchor="middle">Use in Chat</text>

    <rect x="898" y="358" width="228" height="214" rx="24" fill="#101826" stroke="#24364a"/>
    <text x="924" y="394" fill="#c4b5fd" font-size="18" font-weight="800">The Cool Head</text>
    <text x="924" y="424" fill="#cbd5e1" font-size="14">For de-escalating tense chats with calm restraint.</text>
    <rect x="924" y="468" width="176" height="38" rx="12" fill="#122033"/><text x="1012" y="493" fill="#cbd5e1" font-size="14" text-anchor="middle">See Pro plans</text>
  </g>

  <rect x="898" y="622" width="228" height="162" rx="24" fill="url(#pro)"/>
  <text x="924" y="666" fill="#fff" font-family="Inter,Segoe UI,Arial,sans-serif" font-size="16" font-weight="800">Liaison Reply Pro</text>
  <text x="924" y="696" fill="#fff" font-family="Inter,Segoe UI,Arial,sans-serif" font-size="13">Unlimited for normal use</text>
  <text x="924" y="718" fill="#fff" font-family="Inter,Segoe UI,Arial,sans-serif" font-size="12">Fair-use guardrails apply</text>
  <text x="924" y="742" fill="#fff" font-family="Inter,Segoe UI,Arial,sans-serif" font-size="14">Deep Memory</text>
  <text x="924" y="766" fill="#fff" font-family="Inter,Segoe UI,Arial,sans-serif" font-size="14">Priority support</text>
</svg>
