<svg xmlns="http://www.w3.org/2000/svg" viewBox="0 0 64 64" role="img" aria-labelledby="title desc">
  <title id="title">Jordan portrait</title>
  <desc id="desc">Small cropped portrait illustration for the landing hero phone mockup.</desc>
  <defs>
    <radialGradient id="bg" cx="26" cy="18" r="38" gradientUnits="userSpaceOnUse">
      <stop offset="0" stop-color="#b78362"/>
      <stop offset="0.62" stop-color="#83563f"/>
      <stop offset="1" stop-color="#5e3e31"/>
    </radialGradient>
    <radialGradient id="skin" cx="30" cy="26" r="18" gradientUnits="userSpaceOnUse">
      <stop offset="0" stop-color="#f4cfb2"/>
      <stop offset="1" stop-color="#d7a483"/>
    </radialGradient>
    <linearGradient id="shirt" x1="16" y1="44" x2="48" y2="58" gradientUnits="userSpaceOnUse">
      <stop offset="0" stop-color="#425b81"/>
      <stop offset="1" stop-color="#24354f"/>
    </linearGradient>
    <linearGradient id="hair" x1="22" y1="12" x2="42" y2="28" gradientUnits="userSpaceOnUse">
      <stop offset="0" stop-color="#3c261d"/>
      <stop offset="1" stop-color="#211510"/>
    </linearGradient>
  </defs>
  <circle cx="32" cy="32" r="31" fill="url(#bg)"/>
  <ellipse cx="32" cy="58" rx="24" ry="16" fill="url(#shirt)"/>
  <path d="M19 55c2.2-6.9 7.3-11.7 13-11.7S42.8 48.1 45 55" fill="#58729a" opacity="0.38"/>
  <ellipse cx="32" cy="28.5" rx="13.4" ry="15.8" fill="url(#skin)"/>
  <path d="M20.2 25.6c0-9.4 5.3-15.5 12.2-15.5 8.7 0 12.8 5.7 12.8 16.1-2.1-1.8-4.7-3.3-8.2-4.1-5-.9-10 .2-16.8 3.5Z" fill="url(#hair)"/>
  <path d="M22.7 23.9c1.4-4.4 4.8-7.9 9.8-7.9 5.1 0 8.9 3 10.4 8.3-.9-.8-2.4-1.8-4.4-2.6-5-2.1-10.9-1.1-15.8 2.2Z" fill="#4c3126" opacity="0.7"/>
  <ellipse cx="27.8" cy="30.4" rx="1.35" ry="1.55" fill="#2f2019"/>
  <ellipse cx="36.4" cy="30.4" rx="1.35" ry="1.55" fill="#2f2019"/>
  <path d="M28.2 36.8c1.2 1.1 2.5 1.7 3.9 1.7 1.5 0 2.9-.6 4.2-1.9" fill="none" stroke="#8d5f4c" stroke-linecap="round" stroke-width="1.7"/>
  <path d="M23.8 27.1c1-.8 2.1-1.2 3.6-1.2 1.4 0 2.7.4 3.7 1.2" fill="none" stroke="#654236" stroke-linecap="round" stroke-width="1.3"/>
  <path d="M33.4 27.1c1-.8 2.1-1.2 3.6-1.2 1.4 0 2.7.4 3.7 1.2" fill="none" stroke="#654236" stroke-linecap="round" stroke-width="1.3"/>
  <circle cx="22" cy="18" r="10" fill="#ffffff" opacity="0.07"/>
</svg>